{"asset":{"version":"2.0","generator":"VECTARY"},"nodes":[{"translation":[0,0,0],"scale":[1,1,1],"rotation":[0,0,0,1],"name":"ANGUS_V02","children":[1]},{"translation":[0,0,0],"scale":[1,1,1],"rotation":[0,0,0,1],"name":"Angus_bull_rig:Angus_bull_rig","children":[2]},{"translation":[0,0,0],"scale":[1,1,1],"rotation":[0,0,0,1],"name":"Angus_bull_rig:Geometry","children":[3]},{"translation":[7.629394e-9,0,-0.148278311],"scale":[1.8,1.8,1.8],"rotation":[0,0,0,1],"name":"Angus_bull_rig:Angus_bull","mesh":0},{"translation":[-2.786107249202395,1.6564775703004027,3.8781599271661045],"scale":[1,1,1],"rotation":[-0.08804865216331795,-0.3101415814673799,-0.028861321069396928,0.9461641815474019],"name":"Camera","camera":0}],"materials":[{"pbrMetallicRoughness":{"baseColorFactor":[1,1,1,1],"baseColorTexture":{"index":0,"extensions":{"KHR_texture_transform":{"offset":[0,0],"scale":[1,1],"rotation":0}},"texCoord":0},"metallicRoughnessTexture":{"index":2,"extensions":{"KHR_texture_transform":{"offset":[0,0],"scale":[1,1],"rotation":0}},"texCoord":0},"metallicFactor":1,"roughnessFactor":1},"name":"aiStandardSurface1","normalTexture":{"index":1,"scale":1,"extensions":{"KHR_texture_transform":{"offset":[0,0],"scale":[1,1],"rotation":0}},"texCoord":0},"emissiveFactor":[0,0,0],"alphaMode":"OPAQUE","doubleSided":false}],"textures":[{"sampler":0,"source":0},{"sampler":0,"source":1},{"sampler":0,"source":2}],"images":[{"uri":"ANGUS_C_4K.jpg","mimeType":"image/jpeg"},{"uri":"ANGUS_N_4K.jpg","mimeType":"image/jpeg"},{"uri":"file10.jpg","mimeType":"image/jpeg"}],"samplers":[{"wrapS":10497,"wrapT":10497}],"meshes":[{"primitives":[{"mode":4,"attributes":{"POSITION":1,"NORMAL":2,"TEXCOORD_0":3},"material":0,"indices":0}]}],"accessors":[{"bufferView":0,"byteOffset":0,"componentType":5125,"count":203202,"type":"SCALAR"},{"bufferView":1,"byteOffset":0,"componentType":5126,"count":36792,"max":[0.23332425951957703,0.7844184041023254,0.9228531718254089],"min":[-0.23332419991493225,0.000998617266304791,-0.5476221442222595],"type":"VEC3"},{"bufferView":2,"byteOffset":0,"componentType":5126,"count":36792,"type":"VEC3"},{"bufferView":3,"byteOffset":0,"componentType":5126,"count":36792,"type":"VEC2"}],"bufferViews":[{"buffer":0,"byteOffset":0,"byteLength":812808,"target":34963},{"buffer":0,"byteOffset":812808,"byteLength":441504,"target":34962},{"buffer":0,"byteOffset":1254312,"byteLength":441504,"target":34962},{"buffer":0,"byteOffset":1695816,"byteLength":294336,"target":34962}],"cameras":[{"name":"Camera","type":"perspective","extras":{"targetDistance":4.772749094610141},"perspective":{"aspectRatio":0.9375513557929335,"yfov":0.6108652381980153,"zfar":201.34460005519088,"znear":0.019611682637243274}}],"scene":0,"scenes":[{"nodes":[0,4],"name":"CEVA - angus"}],"extensionsUsed":["KHR_texture_transform"],"buffers":[{"byteLength":1990152,"uri":"CEVA- angus.bin"}]}