{"asset":{"version":"2.0","generator":"babylon.js glTF exporter for Maya 2018 v20201123.8"},"scene":0,"scenes":[{"nodes":[0]}],"nodes":[{"children":[1,98],"name":"ControlRig"},{"children":[2],"name":"MAIN_Offset_Ctrl_RestPoseGrp"},{"children":[3],"name":"MAIN_Offset_Ctrl"},{"children":[4],"name":"MAIN_Ctrl_RestPoseGrp"},{"children":[5],"translation":[2.38036656,0.0,-0.0519651957],"scale":[0.6,0.6,0.6],"name":"MAIN_Ctrl"},{"children":[6],"name":"MAIN_Inner_Ctrl_RestPoseGrp"},{"children":[7,29,51,73,95],"name":"MAIN_Inner_Ctrl"},{"children":[8],"name":"l_FrontLegGrp"},{"children":[9],"translation":[2.556519,0.706517339,0.5291836],"scale":[0.6,0.6,0.6],"name":"l_FrontLeg_ScaleGrp"},{"children":[10],"translation":[-7.305685E-05,-1.17752886,-0.08703079],"name":"l_FrontLeg_FootIk_CtrlGrp"},{"children":[11],"name":"l_FrontLeg_FootIk_Ctrl_RestPoseGrp"},{"children":[12],"name":"l_FrontLeg_FootIk_Ctrl"},{"children":[13],"translation":[0.0,-2.842171E-16,0.25399676],"name":"l_FrontLeg_FootPivot_CtrlGrp"},{"children":[14],"name":"l_FrontLeg_FootPivot_Ctrl_RestPoseGrp"},{"children":[15],"name":"l_FrontLeg_FootPivot_Ctrl"},{"children":[16],"rotation":[-0.5,-0.5,-0.5,0.5],"name":"l_FrontLeg_HeelIk_CtrlGrp"},{"children":[17],"name":"l_FrontLeg_HeelIk_CtrlSdkGrp"},{"children":[18],"name":"l_FrontLeg_HeelIk_Ctrl_RestPoseGrp"},{"children":[19],"name":"l_FrontLeg_HeelIk_Ctrl"},{"children":[20],"name":"l_FrontLegToeIk_CtrlGrp"},{"children":[21],"name":"l_FrontLeg_ToeIk_CtrlSdkGrp"},{"children":[22],"name":"l_FrontLeg_ToeIk_Ctrl_RestPoseGrp"},{"children":[23],"name":"l_FrontLeg_ToeIk_Ctrl"},{"children":[24],"name":"l_FrontLeg_BallSwivelLctr"},{"children":[25],"translation":[0.0,0.0,-1.26217742E-31],"rotation":[0.5,0.5,0.5,0.5],"name":"l_FrontLeg_FootBankInLctrGrp"},{"children":[26],"name":"l_FrontLeg_FootBankInLctr"},{"children":[27],"name":"l_FrontLeg_FootBankOutLctrGrp"},{"children":[28],"name":"l_FrontLeg_FootBankOutLctr"},{"name":"l_FrontLeg_FootToePivotLctr"},{"children":[30],"name":"r_FrontLegGrp"},{"children":[31],"translation":[2.2043016,0.706517339,0.5291836],"rotation":[1.0,0.0,0.0,6.123234E-17],"scale":[0.6,0.6,0.6],"name":"r_FrontLeg_ScaleGrp"},{"children":[32],"translation":[-7.305685E-05,1.17752886,0.08703079],"rotation":[1.0,0.0,0.0,6.123234E-17],"name":"r_FrontLeg_FootIk_CtrlGrp"},{"children":[33],"name":"r_FrontLeg_FootIk_Ctrl_RestPoseGrp"},{"children":[34],"name":"r_FrontLeg_FootIk_Ctrl"},{"children":[35],"translation":[0.0,-2.842171E-16,0.25399676],"name":"r_FrontLeg_FootPivot_CtrlGrp"},{"children":[36],"name":"r_FrontLeg_FootPivot_Ctrl_RestPoseGrp"},{"children":[37],"name":"r_FrontLeg_FootPivot_Ctrl"},{"children":[38],"rotation":[0.5,0.5,-0.5,0.5],"name":"r_FrontLeg_HeelIk_CtrlGrp"},{"children":[39],"name":"r_FrontLeg_HeelIk_CtrlSdkGrp"},{"children":[40],"name":"r_FrontLeg_HeelIk_Ctrl_RestPoseGrp"},{"children":[41],"name":"r_FrontLeg_HeelIk_Ctrl"},{"children":[42],"name":"r_FrontLegToeIk_CtrlGrp"},{"children":[43],"name":"r_FrontLeg_ToeIk_CtrlSdkGrp"},{"children":[44],"name":"r_FrontLeg_ToeIk_Ctrl_RestPoseGrp"},{"children":[45],"name":"r_FrontLeg_ToeIk_Ctrl"},{"children":[46],"name":"r_FrontLeg_BallSwivelLctr"},{"children":[47],"translation":[0.0,0.0,1.26217742E-31],"rotation":[-0.5,-0.5,0.5,0.5],"name":"r_FrontLeg_FootBankInLctrGrp"},{"children":[48],"name":"r_FrontLeg_FootBankInLctr"},{"children":[49],"name":"r_FrontLeg_FootBankOutLctrGrp"},{"children":[50],"name":"r_FrontLeg_FootBankOutLctr"},{"name":"r_FrontLeg_FootToePivotLctr"},{"children":[52],"name":"l_HindLegGrp"},{"children":[53],"translation":[2.55831718,1.19699168,-0.7250126],"rotation":[0.0,0.0,0.001850196,0.9999983],"scale":[0.6,0.6,0.6],"name":"l_HindLeg_ScaleGrp"},{"children":[54],"translation":[-0.007390891,-1.99497235,0.3275373],"rotation":[0.0,0.0,-0.001850196,0.9999983],"name":"l_HindLeg_FootIk_CtrlGrp"},{"children":[55],"name":"l_HindLeg_FootIk_Ctrl_RestPoseGrp"},{"children":[56],"translation":[0.0,0.0,-0.228626832],"name":"l_HindLeg_FootIk_Ctrl"},{"children":[57],"translation":[3.5527136E-17,-2.842171E-16,0.319074124],"name":"l_HindLeg_FootPivot_CtrlGrp"},{"children":[58],"name":"l_HindLeg_FootPivot_Ctrl_RestPoseGrp"},{"children":[59],"name":"l_HindLeg_FootPivot_Ctrl"},{"children":[60],"translation":[3.5527136E-17,0.0,0.0],"rotation":[-0.5,-0.5,-0.5,0.5],"name":"l_HindLeg_HeelIk_CtrlGrp"},{"children":[61],"name":"l_HindLeg_HeelIk_CtrlSdkGrp"},{"children":[62],"name":"l_HindLeg_HeelIk_Ctrl_RestPoseGrp"},{"children":[63],"name":"l_HindLeg_HeelIk_Ctrl"},{"children":[64],"name":"l_HindLegToeIk_CtrlGrp"},{"children":[65],"name":"l_HindLeg_ToeIk_CtrlSdkGrp"},{"children":[66],"name":"l_HindLeg_ToeIk_Ctrl_RestPoseGrp"},{"children":[67],"name":"l_HindLeg_ToeIk_Ctrl"},{"children":[68],"name":"l_HindLeg_BallSwivelLctr"},{"children":[69],"rotation":[0.5,0.5,0.5,0.5],"name":"l_HindLeg_FootBankInLctrGrp"},{"children":[70],"name":"l_HindLeg_FootBankInLctr"},{"children":[71],"name":"l_HindLeg_FootBankOutLctrGrp"},{"children":[72],"name":"l_HindLeg_FootBankOutLctr"},{"translation":[0.0,4.440892E-18,3.5527136E-17],"rotation":[-0.0328637175,0.0,0.0,0.999459863],"name":"l_HindLeg_FootToePivotLctr"},{"children":[74],"name":"r_HindLegGrp"},{"children":[75],"translation":[2.20242882,1.19567466,-0.7250126],"rotation":[0.0,0.0,0.001850196,0.9999983],"scale":[0.6,0.6,0.6],"name":"r_HindLeg_ScaleGrp"},{"children":[76],"translation":[-0.00738683,-1.99277747,0.3275373],"rotation":[0.0,0.0,-0.001850196,0.9999983],"name":"r_HindLeg_FootIk_CtrlGrp"},{"children":[77],"name":"r_HindLeg_FootIk_Ctrl_RestPoseGrp"},{"children":[78],"translation":[0.0,0.0,-0.228626832],"name":"r_HindLeg_FootIk_Ctrl"},{"children":[79],"translation":[-3.5527136E-17,-2.842171E-16,0.319074124],"name":"r_HindLeg_FootPivot_CtrlGrp"},{"children":[80],"name":"r_HindLeg_FootPivot_Ctrl_RestPoseGrp"},{"children":[81],"name":"r_HindLeg_FootPivot_Ctrl"},{"children":[82],"translation":[-3.5527136E-17,0.0,0.0],"rotation":[0.5,0.5,-0.5,0.5],"name":"r_HindLeg_HeelIk_CtrlGrp"},{"children":[83],"name":"r_HindLeg_HeelIk_CtrlSdkGrp"},{"children":[84],"name":"r_HindLeg_HeelIk_Ctrl_RestPoseGrp"},{"children":[85],"name":"r_HindLeg_HeelIk_Ctrl"},{"children":[86],"name":"r_HindLegToeIk_CtrlGrp"},{"children":[87],"name":"r_HindLeg_ToeIk_CtrlSdkGrp"},{"children":[88],"name":"r_HindLeg_ToeIk_Ctrl_RestPoseGrp"},{"children":[89],"name":"r_HindLeg_ToeIk_Ctrl"},{"children":[90],"name":"r_HindLeg_BallSwivelLctr"},{"children":[91],"rotation":[-0.5,-0.5,0.5,0.5],"name":"r_HindLeg_FootBankInLctrGrp"},{"children":[92],"name":"r_HindLeg_FootBankInLctr"},{"children":[93],"name":"r_HindLeg_FootBankOutLctrGrp"},{"children":[94],"name":"r_HindLeg_FootBankOutLctr"},{"translation":[0.0,4.440892E-18,3.5527136E-17],"rotation":[-0.0328637175,0.0,0.0,0.999459863],"name":"r_HindLeg_FootToePivotLctr"},{"children":[96],"name":"NeckGrp"},{"children":[97],"translation":[2.38041043,0.00046716092,-0.0519434735],"scale":[0.6,0.6,0.6],"name":"Neck_ScaleGrp"},{"translation":[0.0,2.05972815,1.73549283],"rotation":[-0.5044482,-0.5044482,0.495511919,0.495511919],"name":"Neck_TopJnt"},{"children":[99,100,101],"name":"Geo_Grp"},{"skin":0,"mesh":0,"name":"Horn_Geo","extras":{"MaxHandle":182}},{"skin":1,"mesh":1,"name":"Eye_Geo","extras":{"MaxHandle":3}},{"mesh":2,"name":"Body_Geo"}],"meshes":[{"primitives":[{"attributes":{"POSITION":1,"TANGENT":2,"NORMAL":3,"TEXCOORD_0":4,"JOINTS_0":5,"WEIGHTS_0":6},"indices":0,"material":0}],"name":"Horn_Geo"},{"primitives":[{"attributes":{"POSITION":8,"NORMAL":9,"JOINTS_0":10,"WEIGHTS_0":11},"indices":7,"material":1}],"name":"Eye_Geo"},{"primitives":[{"attributes":{"POSITION":13,"TANGENT":14,"NORMAL":15,"TEXCOORD_0":16},"indices":12,"material":2}],"name":"Body_Geo"}],"accessors":[{"bufferView":0,"componentType":5123,"count":117864,"type":"SCALAR","name":"accessorIndices"},{"bufferView":1,"componentType":5126,"count":20040,"max":[2.596249,1.548964,1.17632651],"min":[2.15377927,1.38693845,1.10505867],"type":"VEC3","name":"accessorPositions"},{"bufferView":2,"componentType":5126,"count":20040,"type":"VEC4","name":"accessorTangents"},{"bufferView":1,"byteOffset":240480,"componentType":5126,"count":20040,"type":"VEC3","name":"accessorNormals"},{"bufferView":3,"componentType":5126,"count":20040,"type":"VEC2","name":"accessorUVs"},{"bufferView":4,"componentType":5123,"count":20040,"type":"VEC4","name":"accessorJoints"},{"bufferView":2,"byteOffset":320640,"componentType":5126,"count":20040,"type":"VEC4","name":"accessorWeights"},{"bufferView":0,"byteOffset":235728,"componentType":5123,"count":8064,"type":"SCALAR","name":"accessorIndices"},{"bufferView":1,"byteOffset":480960,"componentType":5126,"count":1348,"max":[2.50312567,1.31291962,1.21815038],"min":[2.24957275,1.25643134,1.16284323],"type":"VEC3","name":"accessorPositions"},{"bufferView":1,"byteOffset":497136,"componentType":5126,"count":1348,"type":"VEC3","name":"accessorNormals"},{"bufferView":4,"byteOffset":160320,"componentType":5123,"count":1348,"type":"VEC4","name":"accessorJoints"},{"bufferView":2,"byteOffset":641280,"componentType":5126,"count":1348,"type":"VEC4","name":"accessorWeights"},{"bufferView":0,"byteOffset":251856,"componentType":5125,"count":450120,"type":"SCALAR","name":"accessorIndices"},{"bufferView":1,"byteOffset":513312,"componentType":5126,"count":76338,"max":[2.72311664,1.58878493,1.4074986],"min":[2.022906,-0.0181632973,-1.03689516],"type":"VEC3","name":"accessorPositions"},{"bufferView":2,"byteOffset":662848,"componentType":5126,"count":76338,"type":"VEC4","name":"accessorTangents"},{"bufferView":1,"byteOffset":1429368,"componentType":5126,"count":76338,"type":"VEC3","name":"accessorNormals"},{"bufferView":3,"byteOffset":160320,"componentType":5126,"count":76338,"type":"VEC2","name":"accessorUVs"},{"bufferView":5,"componentType":5126,"count":10,"type":"MAT4","name":"accessorInverseBindMatrices"},{"bufferView":5,"byteOffset":640,"componentType":5126,"count":10,"type":"MAT4","name":"accessorInverseBindMatrices"}],"bufferViews":[{"buffer":0,"byteLength":2052336,"name":"bufferViewScalar"},{"buffer":0,"byteOffset":2052336,"byteLength":2345424,"byteStride":12,"name":"bufferViewFloatVec3"},{"buffer":0,"byteOffset":4397760,"byteLength":1884256,"byteStride":16,"name":"bufferViewFloatVec4"},{"buffer":0,"byteOffset":6282016,"byteLength":771024,"byteStride":8,"name":"bufferViewFloatVec2"},{"buffer":0,"byteOffset":7053040,"byteLength":171104,"byteStride":8,"name":"bufferViewUnsignedShortVec4"},{"buffer":0,"byteOffset":7224144,"byteLength":1280,"name":"bufferViewFloatMat4"}],"buffers":[{"uri":"NELORE_V03.bin","byteLength":7225424}],"materials":[{"pbrMetallicRoughness":{"baseColorFactor":[0.8,0.8,0.8,1.0],"baseColorTexture":{"index":0},"metallicFactor":0.0,"roughnessFactor":0.5},"name":"M_CHIFRES"},{"pbrMetallicRoughness":{"baseColorFactor":[0.008,0.005488,0.005488,1.0],"metallicFactor":0.0,"roughnessFactor":0.1},"name":"M_OLHOS"},{"pbrMetallicRoughness":{"baseColorFactor":[0.8,0.8,0.8,1.0],"baseColorTexture":{"index":1},"metallicFactor":0.0,"roughnessFactor":0.6},"name":"M_NELORE"}],"textures":[{"sampler":0,"source":0,"name":"Horn_difuse.jpg"},{"sampler":0,"source":1,"name":"Difuse.jpg"}],"images":[{"uri":"Horn_difuse.jpg"},{"uri":"Difuse.jpg"}],"samplers":[{"magFilter":9729,"minFilter":9987}],"skins":[{"inverseBindMatrices":17,"skeleton":0,"joints":[0,1,2,3,4,5,6,95,96,97],"name":"skeleton #0"},{"inverseBindMatrices":18,"skeleton":0,"joints":[0,1,2,3,4,5,6,95,96,97],"name":"skeleton #0_1"}]}